<svg _ngcontent-gvd-c12="" width="158" height="45" viewBox="0 0 158 45" fill="none" xmlns="http://www.w3.org/2000/svg"><path _ngcontent-gvd-c12="" fill-rule="evenodd" clip-rule="evenodd" d="M22.4323 10.2927H19.9191C19.2053 7.59903 17.0527 5.48022 14.3335 4.79851V3.40193C18.3553 4.06153 21.5492 6.79204 22.4323 10.2927ZM4.75195 12.7505C4.99848 16.5976 8.09667 19.6744 11.9602 19.9176V12.7505H4.75195ZM12.9427 5.75658V11.7519H24.824V12.7505H22.6604C22.3955 16.9366 18.8999 20.3525 14.3335 21.1005V19.7039C17.5311 18.9043 19.9375 16.1222 20.1583 12.7505H12.9427V18.8675H12.9353V22.4344H12.9427V23.5804H11.9639V21.2516C6.72787 21.0342 2.52213 17.353 2.23881 12.7505H0.0825806V11.7519H11.9602V4.5811C8.60077 4.79114 5.8227 7.14947 4.98744 10.2927H2.4743C3.45674 6.39776 7.29821 3.45352 11.9639 3.25822V0.921997H12.9427V2.19329H12.9353V5.75658H12.9427ZM38.0446 12.1572V11.7445H32.7461V12.1572C33.2833 12.1572 33.8242 12.3857 33.8242 12.7616V31.0939C33.8242 31.4993 33.2833 31.6983 32.7461 31.6983V32.111H38.0446V31.6983C37.5074 31.6983 36.9665 31.4882 36.9665 31.0939V12.7616C36.9665 12.3562 37.5074 12.1572 38.0446 12.1572ZM97.6241 28.4408L97.7897 30.9465C99.0923 31.5288 100.84 31.9378 102.33 31.9378C106.757 31.9378 108.729 29.8963 108.729 27.9691C108.729 25.5089 106.243 24.6726 103.939 23.8978C101.95 23.2289 100.097 22.6057 100.097 21.0231C100.097 19.7703 101.51 19.0996 102.996 19.0996C105.381 19.0996 106.76 19.4902 107.213 21.1005H107.691L107.651 19.0112C106.201 18.4289 104.601 18.1636 103.408 18.1636C99.3167 18.1636 97.6425 20.264 97.6425 21.8964C97.6425 24.428 99.9981 25.2745 102.171 26.0553C104.03 26.7236 105.756 27.3437 105.756 28.9309C105.756 29.9553 104.935 31.0055 102.739 31.0055C100.027 31.0055 98.6287 30.1653 97.9921 28.3782L97.6241 28.4408ZM73.0042 19.0443V18.6316H77.6441V19.0443C77.1216 19.0443 76.4446 19.2138 75.9 20.1093L69.1406 31.9857L62.6094 20.3488C62.0243 19.3502 61.4687 19.0407 60.6592 19.0407V18.6279H67.1058V19.0407C66.3589 19.0407 65.8143 19.4718 66.002 20.0761L70.0311 27.796L74.086 20.1756C74.4134 19.5271 73.8468 19.0443 73.0042 19.0443ZM57.9695 31.094L57.9658 24.9549H57.9695V22.1876C57.9695 19.6561 55.2576 18.23 52.4685 18.23C50.0915 18.23 47.9353 19.5676 47.1184 20.253V18.3479H47.1111C47.1111 18.101 46.9933 18.0347 46.8793 18.0347C46.2794 18.2519 45.7945 18.4305 45.3458 18.5958C44.4926 18.9102 43.7701 19.1764 42.6367 19.5676V19.8845C43.564 19.9398 43.851 20.4483 43.9393 21.1116V31.094C43.9393 31.5362 43.3984 31.6983 42.8612 31.6983V32.111H48.1745V31.6983C47.6372 31.6983 47.0963 31.4883 47.0963 31.094V21.4396H47.1221V21.3916C47.8249 20.7063 49.3151 19.9103 50.8753 19.9103C54.1464 19.9103 54.8161 21.6459 54.8161 23.212L54.8087 31.1014C54.8087 31.5325 54.2641 31.6909 53.7343 31.6909V32.1036H59.0513V31.6909C58.514 31.6983 57.9695 31.5509 57.9695 31.094ZM90.3165 23.0719C90.3165 20.3119 88.348 19.258 86.3021 19.258C83.5903 19.258 82.1405 21.1078 81.8425 23.0719H90.3165ZM87.5495 30.5854C88.6497 30.5854 89.6285 30.4491 90.4821 30.1727C91.3358 29.8963 92.3329 29.3878 93.4846 28.6435L93.5067 29.6973C92.4065 30.5965 91.3174 31.2229 90.2466 31.5803C89.1722 31.9378 87.9101 32.1146 86.4567 32.1146C84.8745 32.1146 83.4505 31.7977 82.181 31.1639C80.9116 30.5338 79.9439 29.631 79.2484 28.4813C78.6302 27.4606 78.2807 26.1635 78.2991 25.0654C78.3506 21.9627 81.0661 18.2336 86.7547 18.2336C89.9118 18.2336 93.7385 19.9139 93.7385 24.1258H81.699V24.9217C81.7432 26.193 82.2141 27.9396 83.4026 29.0304C84.5654 30.0916 85.971 30.5854 87.5495 30.5854ZM133.099 19.258C135.141 19.258 137.113 20.3119 137.113 23.0719H128.639C128.937 21.1078 130.387 19.258 133.099 19.258ZM137.279 30.1727C136.425 30.4491 135.446 30.5854 134.346 30.5854C132.768 30.5854 131.358 30.0916 130.196 29.0304C129.007 27.9396 128.536 26.193 128.488 24.9217V24.1258H140.532C140.532 19.9139 136.701 18.2336 133.544 18.2336C127.859 18.2336 125.14 21.9627 125.088 25.0654C125.07 26.1635 125.42 27.4606 126.034 28.4813C126.729 29.631 127.697 30.5338 128.967 31.1639C130.236 31.7977 131.664 32.1146 133.246 32.1146C134.699 32.1146 135.961 31.9378 137.036 31.5803C138.107 31.2229 139.196 30.5965 140.296 29.6973L140.274 28.6435C139.133 29.3878 138.132 29.8963 137.279 30.1727ZM122.87 30.0327L122.936 30.497C122.597 30.7881 122.255 31.0018 121.935 31.1971C121.273 31.5987 120.187 31.9599 119.164 31.9635C116.21 31.9746 114.031 30.5854 114.031 27.8844V27.7996C114.031 27.7959 114.028 27.7886 114.028 27.7812H114.031V19.7555H111.963L111.945 18.5837H114.024L114.02 15.9527L117.24 15.9563V18.5726H122.336V19.7555H117.166V27.8549C117.166 30.5006 119.381 30.8212 120.526 30.7807C121.416 30.7475 122.413 30.2795 122.87 30.0327ZM157.87 28.5993C156.964 29.2183 156.155 29.6642 155.437 29.959C154.646 30.2354 153.69 30.4343 152.56 30.4343C148.627 30.4343 146.698 27.7112 146.698 24.7817C146.698 22.2318 148.284 19.247 151.92 19.247C154.208 19.247 156.324 20.4888 157.137 22.0033H157.873V19.4865L157.867 19.4834C157.729 19.4107 155.314 18.1452 152.107 18.1452C145.834 18.1452 143.295 22.3202 143.295 25.1576C143.295 25.7398 143.38 26.3367 143.552 26.9263H143.534C143.586 27.0848 143.644 27.2395 143.707 27.398C143.972 28.1129 144.369 28.8056 144.903 29.432C145.477 30.1174 146.18 30.6812 147.019 31.1197C148.027 31.6467 149.134 31.9525 150.349 32.0483C150.742 32.0889 151.151 32.1147 151.581 32.1147C152.851 32.1147 153.903 31.8899 154.764 31.5509L154.764 31.5508C154.775 31.5471 154.786 31.5435 154.801 31.5398C155.813 31.1861 156.836 30.5744 157.873 29.6937V28.5993H157.87Z" fill="black"></path></svg>